<?xml version="1.0" encoding="us-ascii" standalone="no"?><svg xmlns="http://www.w3.org/2000/svg" xmlns:xlink="http://www.w3.org/1999/xlink" contentStyleType="text/css" height="1711px" preserveAspectRatio="none" style="width:3936px;height:1711px;background:#FFFFFF;" version="1.1" viewBox="0 0 3936 1711" width="3936px" zoomAndPan="magnify"><defs/><g><!--class MonsterCategory--><g id="elem_MonsterCategory"><rect codeLine="5" fill="#F1F1F1" height="100.8281" id="MonsterCategory" rx="2.5" ry="2.5" style="stroke:#181818;stroke-width:0.5;" width="141" x="345" y="1168"/><ellipse cx="360" cy="1184" fill="#EB937F" rx="11" ry="11" style="stroke:#181818;stroke-width:1.0;"/><path d="M358.8594,1184.7969 L358.8594,1187.2969 L363.1875,1187.2969 L363.1875,1186.375 Q363.1875,1185.7656 363.4297,1185.5 Q363.6719,1185.2344 364.0469,1185.2344 Q364.4219,1185.2344 364.6563,1185.5 Q364.8906,1185.7656 364.8906,1186.375 L364.8906,1189 L356.8906,1189 Q356.2656,1189 356.0078,1188.7656 Q355.75,1188.5313 355.75,1188.1406 Q355.75,1187.7656 356.0156,1187.5313 Q356.2813,1187.2969 356.8906,1187.2969 L357.1563,1187.2969 L357.1563,1180.6406 L356.8906,1180.6406 Q356.2656,1180.6406 356.0078,1180.4063 Q355.75,1180.1719 355.75,1179.7813 Q355.75,1179.4063 356.0078,1179.1719 Q356.2656,1178.9375 356.8906,1178.9375 L364.5156,1178.9375 L364.5156,1181.5313 Q364.5156,1182.1406 364.2891,1182.3984 Q364.0625,1182.6563 363.6719,1182.6563 Q363.2969,1182.6563 363.0625,1182.3984 Q362.8281,1182.1406 362.8281,1181.5313 L362.8281,1180.6406 L358.8594,1180.6406 L358.8594,1183.0938 L360.3438,1183.0938 Q360.3438,1182.4375 360.4688,1182.25 Q360.7344,1181.8438 361.2031,1181.8438 Q361.5781,1181.8438 361.8125,1182.1016 Q362.0469,1182.3594 362.0469,1182.9688 L362.0469,1184.9375 Q362.0469,1185.4844 361.9219,1185.6719 Q361.6563,1186.0625 361.2031,1186.0625 Q360.7344,1186.0625 360.4688,1185.6563 Q360.3438,1185.4688 360.3438,1184.7969 L358.8594,1184.7969 Z " fill="#000000"/><text fill="#000000" font-family="sans-serif" font-size="14" lengthAdjust="spacing" textLength="109" x="374" y="1189.7285">MonsterCategory</text><line style="stroke:#181818;stroke-width:0.5;" x1="346" x2="485" y1="1200" y2="1200"/><text fill="#000000" font-family="sans-serif" font-size="14" lengthAdjust="spacing" textLength="58" x="351" y="1218.5332">NORMAL</text><text fill="#000000" font-family="sans-serif" font-size="14" lengthAdjust="spacing" textLength="64" x="351" y="1236.1426">MINIBOSS</text><text fill="#000000" font-family="sans-serif" font-size="14" lengthAdjust="spacing" textLength="38" x="351" y="1253.752">BOSS</text><line style="stroke:#181818;stroke-width:0.5;" x1="346" x2="485" y1="1260.8281" y2="1260.8281"/></g><!--class ItemType--><g id="elem_ItemType"><rect codeLine="11" fill="#F1F1F1" height="65.6094" id="ItemType" rx="2.5" ry="2.5" style="stroke:#181818;stroke-width:0.5;" width="90" x="3694.5" y="1639"/><ellipse cx="3709.5" cy="1655" fill="#EB937F" rx="11" ry="11" style="stroke:#181818;stroke-width:1.0;"/><path d="M3708.3594,1655.7969 L3708.3594,1658.2969 L3712.6875,1658.2969 L3712.6875,1657.375 Q3712.6875,1656.7656 3712.9297,1656.5 Q3713.1719,1656.2344 3713.5469,1656.2344 Q3713.9219,1656.2344 3714.1563,1656.5 Q3714.3906,1656.7656 3714.3906,1657.375 L3714.3906,1660 L3706.3906,1660 Q3705.7656,1660 3705.5078,1659.7656 Q3705.25,1659.5313 3705.25,1659.1406 Q3705.25,1658.7656 3705.5156,1658.5313 Q3705.7813,1658.2969 3706.3906,1658.2969 L3706.6563,1658.2969 L3706.6563,1651.6406 L3706.3906,1651.6406 Q3705.7656,1651.6406 3705.5078,1651.4063 Q3705.25,1651.1719 3705.25,1650.7813 Q3705.25,1650.4063 3705.5078,1650.1719 Q3705.7656,1649.9375 3706.3906,1649.9375 L3714.0156,1649.9375 L3714.0156,1652.5313 Q3714.0156,1653.1406 3713.7891,1653.3984 Q3713.5625,1653.6563 3713.1719,1653.6563 Q3712.7969,1653.6563 3712.5625,1653.3984 Q3712.3281,1653.1406 3712.3281,1652.5313 L3712.3281,1651.6406 L3708.3594,1651.6406 L3708.3594,1654.0938 L3709.8438,1654.0938 Q3709.8438,1653.4375 3709.9688,1653.25 Q3710.2344,1652.8438 3710.7031,1652.8438 Q3711.0781,1652.8438 3711.3125,1653.1016 Q3711.5469,1653.3594 3711.5469,1653.9688 L3711.5469,1655.9375 Q3711.5469,1656.4844 3711.4219,1656.6719 Q3711.1563,1657.0625 3710.7031,1657.0625 Q3710.2344,1657.0625 3709.9688,1656.6563 Q3709.8438,1656.4688 3709.8438,1655.7969 L3708.3594,1655.7969 Z " fill="#000000"/><text fill="#000000" font-family="sans-serif" font-size="14" lengthAdjust="spacing" textLength="58" x="3723.5" y="1660.7285">ItemType</text><line style="stroke:#181818;stroke-width:0.5;" x1="3695.5" x2="3783.5" y1="1671" y2="1671"/><text fill="#000000" font-family="sans-serif" font-size="14" lengthAdjust="spacing" textLength="35" x="3700.5" y="1689.5332">HEAL</text><line style="stroke:#181818;stroke-width:0.5;" x1="3695.5" x2="3783.5" y1="1696.6094" y2="1696.6094"/></g><!--class CombatResult--><g id="elem_CombatResult"><rect codeLine="15" fill="#F1F1F1" height="100.8281" id="CombatResult" rx="2.5" ry="2.5" style="stroke:#181818;stroke-width:0.5;" width="148" x="161.5" y="1168"/><ellipse cx="188.65" cy="1184" fill="#EB937F" rx="11" ry="11" style="stroke:#181818;stroke-width:1.0;"/><path d="M187.5094,1184.7969 L187.5094,1187.2969 L191.8375,1187.2969 L191.8375,1186.375 Q191.8375,1185.7656 192.0797,1185.5 Q192.3219,1185.2344 192.6969,1185.2344 Q193.0719,1185.2344 193.3063,1185.5 Q193.5406,1185.7656 193.5406,1186.375 L193.5406,1189 L185.5406,1189 Q184.9156,1189 184.6578,1188.7656 Q184.4,1188.5313 184.4,1188.1406 Q184.4,1187.7656 184.6656,1187.5313 Q184.9313,1187.2969 185.5406,1187.2969 L185.8063,1187.2969 L185.8063,1180.6406 L185.5406,1180.6406 Q184.9156,1180.6406 184.6578,1180.4063 Q184.4,1180.1719 184.4,1179.7813 Q184.4,1179.4063 184.6578,1179.1719 Q184.9156,1178.9375 185.5406,1178.9375 L193.1656,1178.9375 L193.1656,1181.5313 Q193.1656,1182.1406 192.9391,1182.3984 Q192.7125,1182.6563 192.3219,1182.6563 Q191.9469,1182.6563 191.7125,1182.3984 Q191.4781,1182.1406 191.4781,1181.5313 L191.4781,1180.6406 L187.5094,1180.6406 L187.5094,1183.0938 L188.9938,1183.0938 Q188.9938,1182.4375 189.1188,1182.25 Q189.3844,1181.8438 189.8531,1181.8438 Q190.2281,1181.8438 190.4625,1182.1016 Q190.6969,1182.3594 190.6969,1182.9688 L190.6969,1184.9375 Q190.6969,1185.4844 190.5719,1185.6719 Q190.3063,1186.0625 189.8531,1186.0625 Q189.3844,1186.0625 189.1188,1185.6563 Q188.9938,1185.4688 188.9938,1184.7969 L187.5094,1184.7969 Z " fill="#000000"/><text fill="#000000" font-family="sans-serif" font-size="14" lengthAdjust="spacing" textLength="89" x="205.35" y="1189.7285">CombatResult</text><line style="stroke:#181818;stroke-width:0.5;" x1="162.5" x2="308.5" y1="1200" y2="1200"/><text fill="#000000" font-family="sans-serif" font-size="14" lengthAdjust="spacing" textLength="47" x="167.5" y="1218.5332">KILLED</text><text fill="#000000" font-family="sans-serif" font-size="14" lengthAdjust="spacing" textLength="56" x="167.5" y="1236.1426">SPARED</text><text fill="#000000" font-family="sans-serif" font-size="14" lengthAdjust="spacing" textLength="136" x="167.5" y="1253.752">PLAYER_DEFEATED</text><line style="stroke:#181818;stroke-width:0.5;" x1="162.5" x2="308.5" y1="1260.8281" y2="1260.8281"/></g><!--class Entity--><g id="elem_Entity"><rect codeLine="22" fill="#F1F1F1" height="294.5313" id="Entity" rx="2.5" ry="2.5" style="stroke:#181818;stroke-width:0.5;" width="397" x="2642" y="432"/><ellipse cx="2818.75" cy="448" fill="#A9DCDF" rx="11" ry="11" style="stroke:#181818;stroke-width:1.0;"/><path d="M2820.9375,449.7656 L2816.7969,449.7656 L2816.375,450.7969 L2816.7969,450.7969 Q2817.4063,450.7969 2817.6719,451.0313 Q2817.9375,451.2656 2817.9375,451.6563 Q2817.9375,452.0313 2817.6719,452.2656 Q2817.4063,452.5 2816.7969,452.5 L2814.5,452.5 Q2813.8906,452.5 2813.6328,452.2656 Q2813.375,452.0313 2813.375,451.6406 Q2813.375,451.2656 2813.6484,451.0234 Q2813.9219,450.7813 2814.5469,450.7969 L2817.2188,444.1406 L2816.1094,444.1406 Q2815.5,444.1406 2815.2344,443.9063 Q2814.9688,443.6719 2814.9688,443.2813 Q2814.9688,442.9063 2815.2344,442.6719 Q2815.5,442.4375 2816.1094,442.4375 L2819.7813,442.4375 L2823.1719,450.7969 Q2823.7656,450.7969 2823.9531,450.9375 Q2824.3438,451.2031 2824.3438,451.6563 Q2824.3438,452.0313 2824.0859,452.2656 Q2823.8281,452.5 2823.2188,452.5 L2820.9219,452.5 Q2820.3125,452.5 2820.0469,452.2656 Q2819.7813,452.0313 2819.7813,451.6406 Q2819.7813,451.2656 2820.0469,451.0313 Q2820.3125,450.7969 2820.9219,450.7969 L2821.3438,450.7969 L2820.9375,449.7656 Z M2820.2188,448.0625 L2818.8594,444.6875 L2817.4844,448.0625 L2820.2188,448.0625 Z " fill="#000000"/><text fill="#000000" font-family="sans-serif" font-size="14" font-style="italic" lengthAdjust="spacing" textLength="35" x="2839.25" y="453.7285">Entity</text><line style="stroke:#181818;stroke-width:0.5;" x1="2643" x2="3038" y1="464" y2="464"/><text fill="#000000" font-family="sans-serif" font-size="14" lengthAdjust="spacing" textLength="122" x="2648" y="482.5332">-mName: std::string</text><text fill="#000000" font-family="sans-serif" font-size="14" lengthAdjust="spacing" textLength="56" x="2648" y="500.1426">-mHp: int</text><text fill="#000000" font-family="sans-serif" font-size="14" lengthAdjust="spacing" textLength="81" x="2648" y="517.752">-mMaxHp: int</text><text fill="#000000" font-family="sans-serif" font-size="14" lengthAdjust="spacing" textLength="59" x="2648" y="535.3613">-mAtk: int</text><text fill="#000000" font-family="sans-serif" font-size="14" lengthAdjust="spacing" textLength="61" x="2648" y="552.9707">-mDef: int</text><line style="stroke:#181818;stroke-width:0.5;" x1="2643" x2="3038" y1="560.0469" y2="560.0469"/><text fill="#000000" font-family="sans-serif" font-size="14" lengthAdjust="spacing" textLength="385" x="2648" y="578.5801">+Entity(rName: const std::string&amp;, maxHp: int, atk: int, def: int)</text><text fill="#000000" font-family="sans-serif" font-size="14" lengthAdjust="spacing" textLength="191" x="2648" y="596.1895">+getName(): const std::string&amp;</text><text fill="#000000" font-family="sans-serif" font-size="14" lengthAdjust="spacing" textLength="78" x="2648" y="613.7988">+getHp(): int</text><text fill="#000000" font-family="sans-serif" font-size="14" lengthAdjust="spacing" textLength="103" x="2648" y="631.4082">+getMaxHp(): int</text><text fill="#000000" font-family="sans-serif" font-size="14" lengthAdjust="spacing" textLength="81" x="2648" y="649.0176">+getAtk(): int</text><text fill="#000000" font-family="sans-serif" font-size="14" lengthAdjust="spacing" textLength="83" x="2648" y="666.627">+getDef(): int</text><text fill="#000000" font-family="sans-serif" font-size="14" lengthAdjust="spacing" textLength="145" x="2648" y="684.2363">#setHp(value: int): void</text><text fill="#000000" font-family="sans-serif" font-size="14" lengthAdjust="spacing" textLength="93" x="2648" y="701.8457">+isAlive(): bool</text><text fill="#000000" font-family="sans-serif" font-size="14" lengthAdjust="spacing" textLength="202" x="2648" y="719.4551">+takeDamage(amount: int): void</text></g><!--class Player--><g id="elem_Player"><rect codeLine="39" fill="#F1F1F1" height="276.9219" id="Player" rx="2.5" ry="2.5" style="stroke:#181818;stroke-width:0.5;" width="402" x="2874.5" y="787"/><ellipse cx="3051.25" cy="803" fill="#ADD1B2" rx="11" ry="11" style="stroke:#181818;stroke-width:1.0;"/><path d="M3054.0156,798.875 Q3054.1719,798.6563 3054.3594,798.5469 Q3054.5469,798.4375 3054.7656,798.4375 Q3055.1406,798.4375 3055.375,798.6953 Q3055.6094,798.9531 3055.6094,799.5625 L3055.6094,801.0156 Q3055.6094,801.625 3055.375,801.8906 Q3055.1406,802.1563 3054.7656,802.1563 Q3054.4219,802.1563 3054.2188,801.9531 Q3054.0156,801.7656 3053.9063,801.25 Q3053.8594,800.8906 3053.6719,800.7031 Q3053.3438,800.3281 3052.7344,800.1094 Q3052.125,799.8906 3051.5,799.8906 Q3050.7344,799.8906 3050.1016,800.2188 Q3049.4688,800.5469 3048.9766,801.2969 Q3048.4844,802.0469 3048.4844,803.0781 L3048.4844,804.1719 Q3048.4844,805.4063 3049.375,806.2266 Q3050.2656,807.0469 3051.8594,807.0469 Q3052.7969,807.0469 3053.4531,806.7969 Q3053.8438,806.6406 3054.2656,806.2031 Q3054.5313,805.9375 3054.6797,805.8594 Q3054.8281,805.7813 3055.0313,805.7813 Q3055.3594,805.7813 3055.6172,806.0391 Q3055.875,806.2969 3055.875,806.6406 Q3055.875,806.9844 3055.5313,807.3906 Q3055.0313,807.9688 3054.2344,808.2969 Q3053.1563,808.75 3051.8594,808.75 Q3050.3438,808.75 3049.1406,808.125 Q3048.1563,807.625 3047.4688,806.5547 Q3046.7813,805.4844 3046.7813,804.2031 L3046.7813,803.0469 Q3046.7813,801.7188 3047.3984,800.5703 Q3048.0156,799.4219 3049.1094,798.8047 Q3050.2031,798.1875 3051.4375,798.1875 Q3052.1719,798.1875 3052.8203,798.3516 Q3053.4688,798.5156 3054.0156,798.875 Z " fill="#000000"/><text fill="#000000" font-family="sans-serif" font-size="14" lengthAdjust="spacing" textLength="40" x="3071.75" y="808.7285">Player</text><line style="stroke:#181818;stroke-width:0.5;" x1="2875.5" x2="3275.5" y1="819" y2="819"/><text fill="#000000" font-family="sans-serif" font-size="14" lengthAdjust="spacing" textLength="64" x="2880.5" y="837.5332">-mKills: int</text><text fill="#000000" font-family="sans-serif" font-size="14" lengthAdjust="spacing" textLength="84" x="2880.5" y="855.1426">-mSpares: int</text><text fill="#000000" font-family="sans-serif" font-size="14" lengthAdjust="spacing" textLength="93" x="2880.5" y="872.752">-mVictories: int</text><text fill="#000000" font-family="sans-serif" font-size="14" lengthAdjust="spacing" textLength="140" x="2880.5" y="890.3613">-mInventory: Inventory</text><line style="stroke:#181818;stroke-width:0.5;" x1="2875.5" x2="3275.5" y1="897.4375" y2="897.4375"/><text fill="#000000" font-family="sans-serif" font-size="14" lengthAdjust="spacing" textLength="390" x="2880.5" y="915.9707">+Player(rName: const std::string&amp;, maxHp: int, atk: int, def: int)</text><text fill="#000000" font-family="sans-serif" font-size="14" lengthAdjust="spacing" textLength="86" x="2880.5" y="933.5801">+getKills(): int</text><text fill="#000000" font-family="sans-serif" font-size="14" lengthAdjust="spacing" textLength="106" x="2880.5" y="951.1895">+getSpares(): int</text><text fill="#000000" font-family="sans-serif" font-size="14" lengthAdjust="spacing" textLength="115" x="2880.5" y="968.7988">+getVictories(): int</text><text fill="#000000" font-family="sans-serif" font-size="14" lengthAdjust="spacing" textLength="94" x="2880.5" y="986.4082">+addKill(): void</text><text fill="#000000" font-family="sans-serif" font-size="14" lengthAdjust="spacing" textLength="114" x="2880.5" y="1004.0176">+addSpare(): void</text><text fill="#000000" font-family="sans-serif" font-size="14" lengthAdjust="spacing" textLength="119" x="2880.5" y="1021.627">+addVictory(): void</text><text fill="#000000" font-family="sans-serif" font-size="14" lengthAdjust="spacing" textLength="149" x="2880.5" y="1039.2363">+heal(amount: int): void</text><text fill="#000000" font-family="sans-serif" font-size="14" lengthAdjust="spacing" textLength="171" x="2880.5" y="1056.8457">+getInventory(): Inventory&amp;</text></g><!--class Monster--><g id="elem_Monster"><rect codeLine="55" fill="#F1F1F1" height="259.3125" id="Monster" rx="2.5" ry="2.5" style="stroke:#181818;stroke-width:0.5;" width="942" x="1583.5" y="796"/><ellipse cx="2024.25" cy="812" fill="#A9DCDF" rx="11" ry="11" style="stroke:#181818;stroke-width:1.0;"/><path d="M2026.4375,813.7656 L2022.2969,813.7656 L2021.875,814.7969 L2022.2969,814.7969 Q2022.9063,814.7969 2023.1719,815.0313 Q2023.4375,815.2656 2023.4375,815.6563 Q2023.4375,816.0313 2023.1719,816.2656 Q2022.9063,816.5 2022.2969,816.5 L2020,816.5 Q2019.3906,816.5 2019.1328,816.2656 Q2018.875,816.0313 2018.875,815.6406 Q2018.875,815.2656 2019.1484,815.0234 Q2019.4219,814.7813 2020.0469,814.7969 L2022.7188,808.1406 L2021.6094,808.1406 Q2021,808.1406 2020.7344,807.9063 Q2020.4688,807.6719 2020.4688,807.2813 Q2020.4688,806.9063 2020.7344,806.6719 Q2021,806.4375 2021.6094,806.4375 L2025.2813,806.4375 L2028.6719,814.7969 Q2029.2656,814.7969 2029.4531,814.9375 Q2029.8438,815.2031 2029.8438,815.6563 Q2029.8438,816.0313 2029.5859,816.2656 Q2029.3281,816.5 2028.7188,816.5 L2026.4219,816.5 Q2025.8125,816.5 2025.5469,816.2656 Q2025.2813,816.0313 2025.2813,815.6406 Q2025.2813,815.2656 2025.5469,815.0313 Q2025.8125,814.7969 2026.4219,814.7969 L2026.8438,814.7969 L2026.4375,813.7656 Z M2025.7188,812.0625 L2024.3594,808.6875 L2022.9844,812.0625 L2025.7188,812.0625 Z " fill="#000000"/><text fill="#000000" font-family="sans-serif" font-size="14" font-style="italic" lengthAdjust="spacing" textLength="52" x="2044.75" y="817.7285">Monster</text><line style="stroke:#181818;stroke-width:0.5;" x1="1584.5" x2="2524.5" y1="828" y2="828"/><text fill="#000000" font-family="sans-serif" font-size="14" lengthAdjust="spacing" textLength="191" x="1589.5" y="846.5332">-mCategory: MonsterCategory</text><text fill="#000000" font-family="sans-serif" font-size="14" lengthAdjust="spacing" textLength="77" x="1589.5" y="864.1426">-mMercy: int</text><text fill="#000000" font-family="sans-serif" font-size="14" lengthAdjust="spacing" textLength="107" x="1589.5" y="881.752">-mMercyGoal: int</text><text fill="#000000" font-family="sans-serif" font-size="14" lengthAdjust="spacing" textLength="206" x="1589.5" y="899.3613">-mActIds: std::vector&lt;std::string&gt;</text><line style="stroke:#181818;stroke-width:0.5;" x1="1584.5" x2="2524.5" y1="906.4375" y2="906.4375"/><text fill="#000000" font-family="sans-serif" font-size="14" lengthAdjust="spacing" textLength="930" x="1589.5" y="924.9707">+Monster(rName: const std::string&amp;, maxHp: int, atk: int, def: int, category: MonsterCategory, mercyGoal: int, rActIds: const std::vector&lt;std::string&gt;&amp;)</text><text fill="#000000" font-family="sans-serif" font-size="14" lengthAdjust="spacing" textLength="213" x="1589.5" y="942.5801">+getCategory(): MonsterCategory</text><text fill="#000000" font-family="sans-serif" font-size="14" lengthAdjust="spacing" textLength="99" x="1589.5" y="960.1895">+getMercy(): int</text><text fill="#000000" font-family="sans-serif" font-size="14" lengthAdjust="spacing" textLength="129" x="1589.5" y="977.7988">+getMercyGoal(): int</text><text fill="#000000" font-family="sans-serif" font-size="14" lengthAdjust="spacing" textLength="275" x="1589.5" y="995.4082">+getActIds(): const std::vector&lt;std::string&gt;&amp;</text><text fill="#000000" font-family="sans-serif" font-size="14" lengthAdjust="spacing" textLength="167" x="1589.5" y="1013.0176">+getAllowedActCount(): int</text><text fill="#000000" font-family="sans-serif" font-size="14" lengthAdjust="spacing" textLength="222" x="1589.5" y="1030.627">+clone(): std::unique_ptr&lt;Monster&gt;</text><text fill="#000000" font-family="sans-serif" font-size="14" lengthAdjust="spacing" textLength="166" x="1589.5" y="1048.2363">+setMercy(value: int): void</text></g><!--class NormalMonster--><g id="elem_NormalMonster"><rect codeLine="70" fill="#F1F1F1" height="100.8281" id="NormalMonster" rx="2.5" ry="2.5" style="stroke:#181818;stroke-width:0.5;" width="806" x="1890.5" y="1168"/><ellipse cx="2241.75" cy="1184" fill="#ADD1B2" rx="11" ry="11" style="stroke:#181818;stroke-width:1.0;"/><path d="M2244.5156,1179.875 Q2244.6719,1179.6563 2244.8594,1179.5469 Q2245.0469,1179.4375 2245.2656,1179.4375 Q2245.6406,1179.4375 2245.875,1179.6953 Q2246.1094,1179.9531 2246.1094,1180.5625 L2246.1094,1182.0156 Q2246.1094,1182.625 2245.875,1182.8906 Q2245.6406,1183.1563 2245.2656,1183.1563 Q2244.9219,1183.1563 2244.7188,1182.9531 Q2244.5156,1182.7656 2244.4063,1182.25 Q2244.3594,1181.8906 2244.1719,1181.7031 Q2243.8438,1181.3281 2243.2344,1181.1094 Q2242.625,1180.8906 2242,1180.8906 Q2241.2344,1180.8906 2240.6016,1181.2188 Q2239.9688,1181.5469 2239.4766,1182.2969 Q2238.9844,1183.0469 2238.9844,1184.0781 L2238.9844,1185.1719 Q2238.9844,1186.4063 2239.875,1187.2266 Q2240.7656,1188.0469 2242.3594,1188.0469 Q2243.2969,1188.0469 2243.9531,1187.7969 Q2244.3438,1187.6406 2244.7656,1187.2031 Q2245.0313,1186.9375 2245.1797,1186.8594 Q2245.3281,1186.7813 2245.5313,1186.7813 Q2245.8594,1186.7813 2246.1172,1187.0391 Q2246.375,1187.2969 2246.375,1187.6406 Q2246.375,1187.9844 2246.0313,1188.3906 Q2245.5313,1188.9688 2244.7344,1189.2969 Q2243.6563,1189.75 2242.3594,1189.75 Q2240.8438,1189.75 2239.6406,1189.125 Q2238.6563,1188.625 2237.9688,1187.5547 Q2237.2813,1186.4844 2237.2813,1185.2031 L2237.2813,1184.0469 Q2237.2813,1182.7188 2237.8984,1181.5703 Q2238.5156,1180.4219 2239.6094,1179.8047 Q2240.7031,1179.1875 2241.9375,1179.1875 Q2242.6719,1179.1875 2243.3203,1179.3516 Q2243.9688,1179.5156 2244.5156,1179.875 Z " fill="#000000"/><text fill="#000000" font-family="sans-serif" font-size="14" lengthAdjust="spacing" textLength="95" x="2262.25" y="1189.7285">NormalMonster</text><line style="stroke:#181818;stroke-width:0.5;" x1="1891.5" x2="2695.5" y1="1200" y2="1200"/><line style="stroke:#181818;stroke-width:0.5;" x1="1891.5" x2="2695.5" y1="1208" y2="1208"/><text fill="#000000" font-family="sans-serif" font-size="14" lengthAdjust="spacing" textLength="794" x="1896.5" y="1226.5332">+NormalMonster(rName: const std::string&amp;, maxHp: int, atk: int, def: int, mercyGoal: int, rActIds: const std::vector&lt;std::string&gt;&amp;)</text><text fill="#000000" font-family="sans-serif" font-size="14" lengthAdjust="spacing" textLength="167" x="1896.5" y="1244.1426">+getAllowedActCount(): int</text><text fill="#000000" font-family="sans-serif" font-size="14" lengthAdjust="spacing" textLength="222" x="1896.5" y="1261.752">+clone(): std::unique_ptr&lt;Monster&gt;</text></g><!--class MiniBossMonster--><g id="elem_MiniBossMonster"><rect codeLine="76" fill="#F1F1F1" height="100.8281" id="MiniBossMonster" rx="2.5" ry="2.5" style="stroke:#181818;stroke-width:0.5;" width="818" x="1037.5" y="1168"/><ellipse cx="1388.75" cy="1184" fill="#ADD1B2" rx="11" ry="11" style="stroke:#181818;stroke-width:1.0;"/><path d="M1391.5156,1179.875 Q1391.6719,1179.6563 1391.8594,1179.5469 Q1392.0469,1179.4375 1392.2656,1179.4375 Q1392.6406,1179.4375 1392.875,1179.6953 Q1393.1094,1179.9531 1393.1094,1180.5625 L1393.1094,1182.0156 Q1393.1094,1182.625 1392.875,1182.8906 Q1392.6406,1183.1563 1392.2656,1183.1563 Q1391.9219,1183.1563 1391.7188,1182.9531 Q1391.5156,1182.7656 1391.4063,1182.25 Q1391.3594,1181.8906 1391.1719,1181.7031 Q1390.8438,1181.3281 1390.2344,1181.1094 Q1389.625,1180.8906 1389,1180.8906 Q1388.2344,1180.8906 1387.6016,1181.2188 Q1386.9688,1181.5469 1386.4766,1182.2969 Q1385.9844,1183.0469 1385.9844,1184.0781 L1385.9844,1185.1719 Q1385.9844,1186.4063 1386.875,1187.2266 Q1387.7656,1188.0469 1389.3594,1188.0469 Q1390.2969,1188.0469 1390.9531,1187.7969 Q1391.3438,1187.6406 1391.7656,1187.2031 Q1392.0313,1186.9375 1392.1797,1186.8594 Q1392.3281,1186.7813 1392.5313,1186.7813 Q1392.8594,1186.7813 1393.1172,1187.0391 Q1393.375,1187.2969 1393.375,1187.6406 Q1393.375,1187.9844 1393.0313,1188.3906 Q1392.5313,1188.9688 1391.7344,1189.2969 Q1390.6563,1189.75 1389.3594,1189.75 Q1387.8438,1189.75 1386.6406,1189.125 Q1385.6563,1188.625 1384.9688,1187.5547 Q1384.2813,1186.4844 1384.2813,1185.2031 L1384.2813,1184.0469 Q1384.2813,1182.7188 1384.8984,1181.5703 Q1385.5156,1180.4219 1386.6094,1179.8047 Q1387.7031,1179.1875 1388.9375,1179.1875 Q1389.6719,1179.1875 1390.3203,1179.3516 Q1390.9688,1179.5156 1391.5156,1179.875 Z " fill="#000000"/><text fill="#000000" font-family="sans-serif" font-size="14" lengthAdjust="spacing" textLength="107" x="1409.25" y="1189.7285">MiniBossMonster</text><line style="stroke:#181818;stroke-width:0.5;" x1="1038.5" x2="1854.5" y1="1200" y2="1200"/><line style="stroke:#181818;stroke-width:0.5;" x1="1038.5" x2="1854.5" y1="1208" y2="1208"/><text fill="#000000" font-family="sans-serif" font-size="14" lengthAdjust="spacing" textLength="806" x="1043.5" y="1226.5332">+MiniBossMonster(rName: const std::string&amp;, maxHp: int, atk: int, def: int, mercyGoal: int, rActIds: const std::vector&lt;std::string&gt;&amp;)</text><text fill="#000000" font-family="sans-serif" font-size="14" lengthAdjust="spacing" textLength="167" x="1043.5" y="1244.1426">+getAllowedActCount(): int</text><text fill="#000000" font-family="sans-serif" font-size="14" lengthAdjust="spacing" textLength="222" x="1043.5" y="1261.752">+clone(): std::unique_ptr&lt;Monster&gt;</text></g><!--class BossMonster--><g id="elem_BossMonster"><rect codeLine="82" fill="#F1F1F1" height="100.8281" id="BossMonster" rx="2.5" ry="2.5" style="stroke:#181818;stroke-width:0.5;" width="793" x="2732" y="1168"/><ellipse cx="3083.25" cy="1184" fill="#ADD1B2" rx="11" ry="11" style="stroke:#181818;stroke-width:1.0;"/><path d="M3086.0156,1179.875 Q3086.1719,1179.6563 3086.3594,1179.5469 Q3086.5469,1179.4375 3086.7656,1179.4375 Q3087.1406,1179.4375 3087.375,1179.6953 Q3087.6094,1179.9531 3087.6094,1180.5625 L3087.6094,1182.0156 Q3087.6094,1182.625 3087.375,1182.8906 Q3087.1406,1183.1563 3086.7656,1183.1563 Q3086.4219,1183.1563 3086.2188,1182.9531 Q3086.0156,1182.7656 3085.9063,1182.25 Q3085.8594,1181.8906 3085.6719,1181.7031 Q3085.3438,1181.3281 3084.7344,1181.1094 Q3084.125,1180.8906 3083.5,1180.8906 Q3082.7344,1180.8906 3082.1016,1181.2188 Q3081.4688,1181.5469 3080.9766,1182.2969 Q3080.4844,1183.0469 3080.4844,1184.0781 L3080.4844,1185.1719 Q3080.4844,1186.4063 3081.375,1187.2266 Q3082.2656,1188.0469 3083.8594,1188.0469 Q3084.7969,1188.0469 3085.4531,1187.7969 Q3085.8438,1187.6406 3086.2656,1187.2031 Q3086.5313,1186.9375 3086.6797,1186.8594 Q3086.8281,1186.7813 3087.0313,1186.7813 Q3087.3594,1186.7813 3087.6172,1187.0391 Q3087.875,1187.2969 3087.875,1187.6406 Q3087.875,1187.9844 3087.5313,1188.3906 Q3087.0313,1188.9688 3086.2344,1189.2969 Q3085.1563,1189.75 3083.8594,1189.75 Q3082.3438,1189.75 3081.1406,1189.125 Q3080.1563,1188.625 3079.4688,1187.5547 Q3078.7813,1186.4844 3078.7813,1185.2031 L3078.7813,1184.0469 Q3078.7813,1182.7188 3079.3984,1181.5703 Q3080.0156,1180.4219 3081.1094,1179.8047 Q3082.2031,1179.1875 3083.4375,1179.1875 Q3084.1719,1179.1875 3084.8203,1179.3516 Q3085.4688,1179.5156 3086.0156,1179.875 Z " fill="#000000"/><text fill="#000000" font-family="sans-serif" font-size="14" lengthAdjust="spacing" textLength="82" x="3103.75" y="1189.7285">BossMonster</text><line style="stroke:#181818;stroke-width:0.5;" x1="2733" x2="3524" y1="1200" y2="1200"/><line style="stroke:#181818;stroke-width:0.5;" x1="2733" x2="3524" y1="1208" y2="1208"/><text fill="#000000" font-family="sans-serif" font-size="14" lengthAdjust="spacing" textLength="781" x="2738" y="1226.5332">+BossMonster(rName: const std::string&amp;, maxHp: int, atk: int, def: int, mercyGoal: int, rActIds: const std::vector&lt;std::string&gt;&amp;)</text><text fill="#000000" font-family="sans-serif" font-size="14" lengthAdjust="spacing" textLength="167" x="2738" y="1244.1426">+getAllowedActCount(): int</text><text fill="#000000" font-family="sans-serif" font-size="14" lengthAdjust="spacing" textLength="222" x="2738" y="1261.752">+clone(): std::unique_ptr&lt;Monster&gt;</text></g><!--class Item--><g id="elem_Item"><rect codeLine="88" fill="#F1F1F1" height="206.4844" id="Item" rx="2.5" ry="2.5" style="stroke:#181818;stroke-width:0.5;" width="380" x="3549.5" y="1373"/><ellipse cx="3722.25" cy="1389" fill="#ADD1B2" rx="11" ry="11" style="stroke:#181818;stroke-width:1.0;"/><path d="M3725.0156,1384.875 Q3725.1719,1384.6563 3725.3594,1384.5469 Q3725.5469,1384.4375 3725.7656,1384.4375 Q3726.1406,1384.4375 3726.375,1384.6953 Q3726.6094,1384.9531 3726.6094,1385.5625 L3726.6094,1387.0156 Q3726.6094,1387.625 3726.375,1387.8906 Q3726.1406,1388.1563 3725.7656,1388.1563 Q3725.4219,1388.1563 3725.2188,1387.9531 Q3725.0156,1387.7656 3724.9063,1387.25 Q3724.8594,1386.8906 3724.6719,1386.7031 Q3724.3438,1386.3281 3723.7344,1386.1094 Q3723.125,1385.8906 3722.5,1385.8906 Q3721.7344,1385.8906 3721.1016,1386.2188 Q3720.4688,1386.5469 3719.9766,1387.2969 Q3719.4844,1388.0469 3719.4844,1389.0781 L3719.4844,1390.1719 Q3719.4844,1391.4063 3720.375,1392.2266 Q3721.2656,1393.0469 3722.8594,1393.0469 Q3723.7969,1393.0469 3724.4531,1392.7969 Q3724.8438,1392.6406 3725.2656,1392.2031 Q3725.5313,1391.9375 3725.6797,1391.8594 Q3725.8281,1391.7813 3726.0313,1391.7813 Q3726.3594,1391.7813 3726.6172,1392.0391 Q3726.875,1392.2969 3726.875,1392.6406 Q3726.875,1392.9844 3726.5313,1393.3906 Q3726.0313,1393.9688 3725.2344,1394.2969 Q3724.1563,1394.75 3722.8594,1394.75 Q3721.3438,1394.75 3720.1406,1394.125 Q3719.1563,1393.625 3718.4688,1392.5547 Q3717.7813,1391.4844 3717.7813,1390.2031 L3717.7813,1389.0469 Q3717.7813,1387.7188 3718.3984,1386.5703 Q3719.0156,1385.4219 3720.1094,1384.8047 Q3721.2031,1384.1875 3722.4375,1384.1875 Q3723.1719,1384.1875 3723.8203,1384.3516 Q3724.4688,1384.5156 3725.0156,1384.875 Z " fill="#000000"/><text fill="#000000" font-family="sans-serif" font-size="14" lengthAdjust="spacing" textLength="26" x="3742.75" y="1394.7285">Item</text><line style="stroke:#181818;stroke-width:0.5;" x1="3550.5" x2="3928.5" y1="1405" y2="1405"/><text fill="#000000" font-family="sans-serif" font-size="14" lengthAdjust="spacing" textLength="122" x="3555.5" y="1423.5332">-mName: std::string</text><text fill="#000000" font-family="sans-serif" font-size="14" lengthAdjust="spacing" textLength="114" x="3555.5" y="1441.1426">-mType: ItemType</text><text fill="#000000" font-family="sans-serif" font-size="14" lengthAdjust="spacing" textLength="75" x="3555.5" y="1458.752">-mValue: int</text><line style="stroke:#181818;stroke-width:0.5;" x1="3550.5" x2="3928.5" y1="1465.8281" y2="1465.8281"/><text fill="#000000" font-family="sans-serif" font-size="14" lengthAdjust="spacing" textLength="44" x="3555.5" y="1484.3613">+Item()</text><text fill="#000000" font-family="sans-serif" font-size="14" lengthAdjust="spacing" textLength="368" x="3555.5" y="1501.9707">+Item(rName: const std::string&amp;, type: ItemType, value: int)</text><text fill="#000000" font-family="sans-serif" font-size="14" lengthAdjust="spacing" textLength="191" x="3555.5" y="1519.5801">+getName(): const std::string&amp;</text><text fill="#000000" font-family="sans-serif" font-size="14" lengthAdjust="spacing" textLength="136" x="3555.5" y="1537.1895">+getType(): ItemType</text><text fill="#000000" font-family="sans-serif" font-size="14" lengthAdjust="spacing" textLength="97" x="3555.5" y="1554.7988">+getValue(): int</text><text fill="#000000" font-family="sans-serif" font-size="14" lengthAdjust="spacing" textLength="190" x="3555.5" y="1572.4082">+apply(rTarget: Player&amp;): void</text></g><!--class Inventory--><g id="elem_Inventory"><rect codeLine="100" fill="#F1F1F1" height="153.6563" id="Inventory" rx="2.5" ry="2.5" style="stroke:#181818;stroke-width:0.5;" width="358" x="3560.5" y="1141.5"/><ellipse cx="3706.25" cy="1157.5" fill="#ADD1B2" rx="11" ry="11" style="stroke:#181818;stroke-width:1.0;"/><path d="M3709.0156,1153.375 Q3709.1719,1153.1563 3709.3594,1153.0469 Q3709.5469,1152.9375 3709.7656,1152.9375 Q3710.1406,1152.9375 3710.375,1153.1953 Q3710.6094,1153.4531 3710.6094,1154.0625 L3710.6094,1155.5156 Q3710.6094,1156.125 3710.375,1156.3906 Q3710.1406,1156.6563 3709.7656,1156.6563 Q3709.4219,1156.6563 3709.2188,1156.4531 Q3709.0156,1156.2656 3708.9063,1155.75 Q3708.8594,1155.3906 3708.6719,1155.2031 Q3708.3438,1154.8281 3707.7344,1154.6094 Q3707.125,1154.3906 3706.5,1154.3906 Q3705.7344,1154.3906 3705.1016,1154.7188 Q3704.4688,1155.0469 3703.9766,1155.7969 Q3703.4844,1156.5469 3703.4844,1157.5781 L3703.4844,1158.6719 Q3703.4844,1159.9063 3704.375,1160.7266 Q3705.2656,1161.5469 3706.8594,1161.5469 Q3707.7969,1161.5469 3708.4531,1161.2969 Q3708.8438,1161.1406 3709.2656,1160.7031 Q3709.5313,1160.4375 3709.6797,1160.3594 Q3709.8281,1160.2813 3710.0313,1160.2813 Q3710.3594,1160.2813 3710.6172,1160.5391 Q3710.875,1160.7969 3710.875,1161.1406 Q3710.875,1161.4844 3710.5313,1161.8906 Q3710.0313,1162.4688 3709.2344,1162.7969 Q3708.1563,1163.25 3706.8594,1163.25 Q3705.3438,1163.25 3704.1406,1162.625 Q3703.1563,1162.125 3702.4688,1161.0547 Q3701.7813,1159.9844 3701.7813,1158.7031 L3701.7813,1157.5469 Q3701.7813,1156.2188 3702.3984,1155.0703 Q3703.0156,1153.9219 3704.1094,1153.3047 Q3705.2031,1152.6875 3706.4375,1152.6875 Q3707.1719,1152.6875 3707.8203,1152.8516 Q3708.4688,1153.0156 3709.0156,1153.375 Z " fill="#000000"/><text fill="#000000" font-family="sans-serif" font-size="14" lengthAdjust="spacing" textLength="58" x="3726.75" y="1163.2285">Inventory</text><line style="stroke:#181818;stroke-width:0.5;" x1="3561.5" x2="3917.5" y1="1173.5" y2="1173.5"/><text fill="#000000" font-family="sans-serif" font-size="14" lengthAdjust="spacing" textLength="212" x="3566.5" y="1192.0332">-mItems: std::map&lt;std::string, int&gt;</text><text fill="#000000" font-family="sans-serif" font-size="14" lengthAdjust="spacing" textLength="245" x="3566.5" y="1209.6426">-mItemDefs: std::map&lt;std::string, Item&gt;</text><line style="stroke:#181818;stroke-width:0.5;" x1="3561.5" x2="3917.5" y1="1216.7188" y2="1216.7188"/><text fill="#000000" font-family="sans-serif" font-size="14" lengthAdjust="spacing" textLength="272" x="3566.5" y="1235.252">+getQuantity(rName: const std::string&amp;): int</text><text fill="#000000" font-family="sans-serif" font-size="14" lengthAdjust="spacing" textLength="238" x="3566.5" y="1252.8613">+add(rItem: const Item&amp;, qty: int): void</text><text fill="#000000" font-family="sans-serif" font-size="14" lengthAdjust="spacing" textLength="346" x="3566.5" y="1270.4707">+use(rName: const std::string&amp;, rTarget: Player&amp;): bool</text><text fill="#000000" font-family="sans-serif" font-size="14" lengthAdjust="spacing" textLength="184" x="3566.5" y="1288.0801">+listItems(): std::vector&lt;Item&gt;</text></g><!--class ActAction--><g id="elem_ActAction"><rect codeLine="109" fill="#F1F1F1" height="188.875" id="ActAction" rx="2.5" ry="2.5" style="stroke:#181818;stroke-width:0.5;" width="481" x="521" y="1124"/><ellipse cx="727.75" cy="1140" fill="#ADD1B2" rx="11" ry="11" style="stroke:#181818;stroke-width:1.0;"/><path d="M730.5156,1135.875 Q730.6719,1135.6563 730.8594,1135.5469 Q731.0469,1135.4375 731.2656,1135.4375 Q731.6406,1135.4375 731.875,1135.6953 Q732.1094,1135.9531 732.1094,1136.5625 L732.1094,1138.0156 Q732.1094,1138.625 731.875,1138.8906 Q731.6406,1139.1563 731.2656,1139.1563 Q730.9219,1139.1563 730.7188,1138.9531 Q730.5156,1138.7656 730.4063,1138.25 Q730.3594,1137.8906 730.1719,1137.7031 Q729.8438,1137.3281 729.2344,1137.1094 Q728.625,1136.8906 728,1136.8906 Q727.2344,1136.8906 726.6016,1137.2188 Q725.9688,1137.5469 725.4766,1138.2969 Q724.9844,1139.0469 724.9844,1140.0781 L724.9844,1141.1719 Q724.9844,1142.4063 725.875,1143.2266 Q726.7656,1144.0469 728.3594,1144.0469 Q729.2969,1144.0469 729.9531,1143.7969 Q730.3438,1143.6406 730.7656,1143.2031 Q731.0313,1142.9375 731.1797,1142.8594 Q731.3281,1142.7813 731.5313,1142.7813 Q731.8594,1142.7813 732.1172,1143.0391 Q732.375,1143.2969 732.375,1143.6406 Q732.375,1143.9844 732.0313,1144.3906 Q731.5313,1144.9688 730.7344,1145.2969 Q729.6563,1145.75 728.3594,1145.75 Q726.8438,1145.75 725.6406,1145.125 Q724.6563,1144.625 723.9688,1143.5547 Q723.2813,1142.4844 723.2813,1141.2031 L723.2813,1140.0469 Q723.2813,1138.7188 723.8984,1137.5703 Q724.5156,1136.4219 725.6094,1135.8047 Q726.7031,1135.1875 727.9375,1135.1875 Q728.6719,1135.1875 729.3203,1135.3516 Q729.9688,1135.5156 730.5156,1135.875 Z " fill="#000000"/><text fill="#000000" font-family="sans-serif" font-size="14" lengthAdjust="spacing" textLength="59" x="748.25" y="1145.7285">ActAction</text><line style="stroke:#181818;stroke-width:0.5;" x1="522" x2="1001" y1="1156" y2="1156"/><text fill="#000000" font-family="sans-serif" font-size="14" lengthAdjust="spacing" textLength="97" x="527" y="1174.5332">-mId: std::string</text><text fill="#000000" font-family="sans-serif" font-size="14" lengthAdjust="spacing" textLength="113" x="527" y="1192.1426">-mText: std::string</text><text fill="#000000" font-family="sans-serif" font-size="14" lengthAdjust="spacing" textLength="110" x="527" y="1209.752">-mMercyDelta: int</text><line style="stroke:#181818;stroke-width:0.5;" x1="522" x2="1001" y1="1216.8281" y2="1216.8281"/><text fill="#000000" font-family="sans-serif" font-size="14" lengthAdjust="spacing" textLength="77" x="527" y="1235.3613">+ActAction()</text><text fill="#000000" font-family="sans-serif" font-size="14" lengthAdjust="spacing" textLength="469" x="527" y="1252.9707">+ActAction(rId: const std::string&amp;, rText: const std::string&amp;, mercyDelta: int)</text><text fill="#000000" font-family="sans-serif" font-size="14" lengthAdjust="spacing" textLength="166" x="527" y="1270.5801">+getId(): const std::string&amp;</text><text fill="#000000" font-family="sans-serif" font-size="14" lengthAdjust="spacing" textLength="182" x="527" y="1288.1895">+getText(): const std::string&amp;</text><text fill="#000000" font-family="sans-serif" font-size="14" lengthAdjust="spacing" textLength="132" x="527" y="1305.7988">+getMercyDelta(): int</text></g><!--class ActCatalog--><g id="elem_ActCatalog"><rect codeLine="120" fill="#F1F1F1" height="136.0469" id="ActCatalog" rx="2.5" ry="2.5" style="stroke:#181818;stroke-width:0.5;" width="297" x="1174" y="857.5"/><ellipse cx="1283.75" cy="873.5" fill="#ADD1B2" rx="11" ry="11" style="stroke:#181818;stroke-width:1.0;"/><path d="M1286.5156,869.375 Q1286.6719,869.1563 1286.8594,869.0469 Q1287.0469,868.9375 1287.2656,868.9375 Q1287.6406,868.9375 1287.875,869.1953 Q1288.1094,869.4531 1288.1094,870.0625 L1288.1094,871.5156 Q1288.1094,872.125 1287.875,872.3906 Q1287.6406,872.6563 1287.2656,872.6563 Q1286.9219,872.6563 1286.7188,872.4531 Q1286.5156,872.2656 1286.4063,871.75 Q1286.3594,871.3906 1286.1719,871.2031 Q1285.8438,870.8281 1285.2344,870.6094 Q1284.625,870.3906 1284,870.3906 Q1283.2344,870.3906 1282.6016,870.7188 Q1281.9688,871.0469 1281.4766,871.7969 Q1280.9844,872.5469 1280.9844,873.5781 L1280.9844,874.6719 Q1280.9844,875.9063 1281.875,876.7266 Q1282.7656,877.5469 1284.3594,877.5469 Q1285.2969,877.5469 1285.9531,877.2969 Q1286.3438,877.1406 1286.7656,876.7031 Q1287.0313,876.4375 1287.1797,876.3594 Q1287.3281,876.2813 1287.5313,876.2813 Q1287.8594,876.2813 1288.1172,876.5391 Q1288.375,876.7969 1288.375,877.1406 Q1288.375,877.4844 1288.0313,877.8906 Q1287.5313,878.4688 1286.7344,878.7969 Q1285.6563,879.25 1284.3594,879.25 Q1282.8438,879.25 1281.6406,878.625 Q1280.6563,878.125 1279.9688,877.0547 Q1279.2813,875.9844 1279.2813,874.7031 L1279.2813,873.5469 Q1279.2813,872.2188 1279.8984,871.0703 Q1280.5156,869.9219 1281.6094,869.3047 Q1282.7031,868.6875 1283.9375,868.6875 Q1284.6719,868.6875 1285.3203,868.8516 Q1285.9688,869.0156 1286.5156,869.375 Z " fill="#000000"/><text fill="#000000" font-family="sans-serif" font-size="14" lengthAdjust="spacing" textLength="69" x="1304.25" y="879.2285">ActCatalog</text><line style="stroke:#181818;stroke-width:0.5;" x1="1175" x2="1470" y1="889.5" y2="889.5"/><text fill="#000000" font-family="sans-serif" font-size="14" lengthAdjust="spacing" textLength="269" x="1180" y="908.0332">-mActions: std::map&lt;std::string, ActAction&gt;</text><line style="stroke:#181818;stroke-width:0.5;" x1="1175" x2="1470" y1="915.1094" y2="915.1094"/><text fill="#000000" font-family="sans-serif" font-size="14" lengthAdjust="spacing" textLength="234" x="1180" y="933.6426">+add(rAction: const ActAction&amp;): void</text><text fill="#000000" font-family="sans-serif" font-size="14" lengthAdjust="spacing" textLength="209" x="1180" y="951.252">+has(rId: const std::string&amp;): bool</text><text fill="#000000" font-family="sans-serif" font-size="14" lengthAdjust="spacing" textLength="285" x="1180" y="968.8613">+get(rId: const std::string&amp;): const ActAction&amp;</text><text fill="#000000" font-family="sans-serif" font-size="14" lengthAdjust="spacing" textLength="184" x="1180" y="986.4707">+list(): std::vector&lt;ActAction&gt;</text></g><!--class BestiaryEntry--><g id="elem_BestiaryEntry"><rect codeLine="128" fill="#F1F1F1" height="276.9219" id="BestiaryEntry" rx="2.5" ry="2.5" style="stroke:#181818;stroke-width:0.5;" width="817" x="7" y="787"/><ellipse cx="369.25" cy="803" fill="#ADD1B2" rx="11" ry="11" style="stroke:#181818;stroke-width:1.0;"/><path d="M372.0156,798.875 Q372.1719,798.6563 372.3594,798.5469 Q372.5469,798.4375 372.7656,798.4375 Q373.1406,798.4375 373.375,798.6953 Q373.6094,798.9531 373.6094,799.5625 L373.6094,801.0156 Q373.6094,801.625 373.375,801.8906 Q373.1406,802.1563 372.7656,802.1563 Q372.4219,802.1563 372.2188,801.9531 Q372.0156,801.7656 371.9063,801.25 Q371.8594,800.8906 371.6719,800.7031 Q371.3438,800.3281 370.7344,800.1094 Q370.125,799.8906 369.5,799.8906 Q368.7344,799.8906 368.1016,800.2188 Q367.4688,800.5469 366.9766,801.2969 Q366.4844,802.0469 366.4844,803.0781 L366.4844,804.1719 Q366.4844,805.4063 367.375,806.2266 Q368.2656,807.0469 369.8594,807.0469 Q370.7969,807.0469 371.4531,806.7969 Q371.8438,806.6406 372.2656,806.2031 Q372.5313,805.9375 372.6797,805.8594 Q372.8281,805.7813 373.0313,805.7813 Q373.3594,805.7813 373.6172,806.0391 Q373.875,806.2969 373.875,806.6406 Q373.875,806.9844 373.5313,807.3906 Q373.0313,807.9688 372.2344,808.2969 Q371.1563,808.75 369.8594,808.75 Q368.3438,808.75 367.1406,808.125 Q366.1563,807.625 365.4688,806.5547 Q364.7813,805.4844 364.7813,804.2031 L364.7813,803.0469 Q364.7813,801.7188 365.3984,800.5703 Q366.0156,799.4219 367.1094,798.8047 Q368.2031,798.1875 369.4375,798.1875 Q370.1719,798.1875 370.8203,798.3516 Q371.4688,798.5156 372.0156,798.875 Z " fill="#000000"/><text fill="#000000" font-family="sans-serif" font-size="14" lengthAdjust="spacing" textLength="84" x="389.75" y="808.7285">BestiaryEntry</text><line style="stroke:#181818;stroke-width:0.5;" x1="8" x2="823" y1="819" y2="819"/><text fill="#000000" font-family="sans-serif" font-size="14" lengthAdjust="spacing" textLength="173" x="13" y="837.5332">-mMonsterName: std::string</text><text fill="#000000" font-family="sans-serif" font-size="14" lengthAdjust="spacing" textLength="191" x="13" y="855.1426">-mCategory: MonsterCategory</text><text fill="#000000" font-family="sans-serif" font-size="14" lengthAdjust="spacing" textLength="81" x="13" y="872.752">-mMaxHp: int</text><text fill="#000000" font-family="sans-serif" font-size="14" lengthAdjust="spacing" textLength="59" x="13" y="890.3613">-mAtk: int</text><text fill="#000000" font-family="sans-serif" font-size="14" lengthAdjust="spacing" textLength="61" x="13" y="907.9707">-mDef: int</text><text fill="#000000" font-family="sans-serif" font-size="14" lengthAdjust="spacing" textLength="153" x="13" y="925.5801">-mResult: CombatResult</text><line style="stroke:#181818;stroke-width:0.5;" x1="8" x2="823" y1="932.6563" y2="932.6563"/><text fill="#000000" font-family="sans-serif" font-size="14" lengthAdjust="spacing" textLength="805" x="13" y="951.1895">+BestiaryEntry(rMonsterName: const std::string&amp;, category: MonsterCategory, maxHp: int, atk: int, def: int, result: CombatResult)</text><text fill="#000000" font-family="sans-serif" font-size="14" lengthAdjust="spacing" textLength="242" x="13" y="968.7988">+getMonsterName(): const std::string&amp;</text><text fill="#000000" font-family="sans-serif" font-size="14" lengthAdjust="spacing" textLength="213" x="13" y="986.4082">+getCategory(): MonsterCategory</text><text fill="#000000" font-family="sans-serif" font-size="14" lengthAdjust="spacing" textLength="103" x="13" y="1004.0176">+getMaxHp(): int</text><text fill="#000000" font-family="sans-serif" font-size="14" lengthAdjust="spacing" textLength="81" x="13" y="1021.627">+getAtk(): int</text><text fill="#000000" font-family="sans-serif" font-size="14" lengthAdjust="spacing" textLength="83" x="13" y="1039.2363">+getDef(): int</text><text fill="#000000" font-family="sans-serif" font-size="14" lengthAdjust="spacing" textLength="175" x="13" y="1056.8457">+getResult(): CombatResult</text></g><!--class Bestiary--><g id="elem_Bestiary"><rect codeLine="144" fill="#F1F1F1" height="100.8281" id="Bestiary" rx="2.5" ry="2.5" style="stroke:#181818;stroke-width:0.5;" width="268" x="798.5" y="529"/><ellipse cx="902.75" cy="545" fill="#ADD1B2" rx="11" ry="11" style="stroke:#181818;stroke-width:1.0;"/><path d="M905.5156,540.875 Q905.6719,540.6563 905.8594,540.5469 Q906.0469,540.4375 906.2656,540.4375 Q906.6406,540.4375 906.875,540.6953 Q907.1094,540.9531 907.1094,541.5625 L907.1094,543.0156 Q907.1094,543.625 906.875,543.8906 Q906.6406,544.1563 906.2656,544.1563 Q905.9219,544.1563 905.7188,543.9531 Q905.5156,543.7656 905.4063,543.25 Q905.3594,542.8906 905.1719,542.7031 Q904.8438,542.3281 904.2344,542.1094 Q903.625,541.8906 903,541.8906 Q902.2344,541.8906 901.6016,542.2188 Q900.9688,542.5469 900.4766,543.2969 Q899.9844,544.0469 899.9844,545.0781 L899.9844,546.1719 Q899.9844,547.4063 900.875,548.2266 Q901.7656,549.0469 903.3594,549.0469 Q904.2969,549.0469 904.9531,548.7969 Q905.3438,548.6406 905.7656,548.2031 Q906.0313,547.9375 906.1797,547.8594 Q906.3281,547.7813 906.5313,547.7813 Q906.8594,547.7813 907.1172,548.0391 Q907.375,548.2969 907.375,548.6406 Q907.375,548.9844 907.0313,549.3906 Q906.5313,549.9688 905.7344,550.2969 Q904.6563,550.75 903.3594,550.75 Q901.8438,550.75 900.6406,550.125 Q899.6563,549.625 898.9688,548.5547 Q898.2813,547.4844 898.2813,546.2031 L898.2813,545.0469 Q898.2813,543.7188 898.8984,542.5703 Q899.5156,541.4219 900.6094,540.8047 Q901.7031,540.1875 902.9375,540.1875 Q903.6719,540.1875 904.3203,540.3516 Q904.9688,540.5156 905.5156,540.875 Z " fill="#000000"/><text fill="#000000" font-family="sans-serif" font-size="14" lengthAdjust="spacing" textLength="51" x="923.25" y="550.7285">Bestiary</text><line style="stroke:#181818;stroke-width:0.5;" x1="799.5" x2="1065.5" y1="561" y2="561"/><text fill="#000000" font-family="sans-serif" font-size="14" lengthAdjust="spacing" textLength="234" x="804.5" y="579.5332">-mEntries: std::vector&lt;BestiaryEntry&gt;</text><line style="stroke:#181818;stroke-width:0.5;" x1="799.5" x2="1065.5" y1="586.6094" y2="586.6094"/><text fill="#000000" font-family="sans-serif" font-size="14" lengthAdjust="spacing" textLength="253" x="804.5" y="605.1426">+add(rEntry: const BestiaryEntry&amp;): void</text><text fill="#000000" font-family="sans-serif" font-size="14" lengthAdjust="spacing" textLength="256" x="804.5" y="622.752">+list(): const std::vector&lt;BestiaryEntry&gt;&amp;</text></g><!--class Combat--><g id="elem_Combat"><rect codeLine="151" fill="#F1F1F1" height="241.7031" id="Combat" rx="2.5" ry="2.5" style="stroke:#181818;stroke-width:0.5;" width="499" x="2108" y="458.5"/><ellipse cx="2328.75" cy="474.5" fill="#ADD1B2" rx="11" ry="11" style="stroke:#181818;stroke-width:1.0;"/><path d="M2331.5156,470.375 Q2331.6719,470.1563 2331.8594,470.0469 Q2332.0469,469.9375 2332.2656,469.9375 Q2332.6406,469.9375 2332.875,470.1953 Q2333.1094,470.4531 2333.1094,471.0625 L2333.1094,472.5156 Q2333.1094,473.125 2332.875,473.3906 Q2332.6406,473.6563 2332.2656,473.6563 Q2331.9219,473.6563 2331.7188,473.4531 Q2331.5156,473.2656 2331.4063,472.75 Q2331.3594,472.3906 2331.1719,472.2031 Q2330.8438,471.8281 2330.2344,471.6094 Q2329.625,471.3906 2329,471.3906 Q2328.2344,471.3906 2327.6016,471.7188 Q2326.9688,472.0469 2326.4766,472.7969 Q2325.9844,473.5469 2325.9844,474.5781 L2325.9844,475.6719 Q2325.9844,476.9063 2326.875,477.7266 Q2327.7656,478.5469 2329.3594,478.5469 Q2330.2969,478.5469 2330.9531,478.2969 Q2331.3438,478.1406 2331.7656,477.7031 Q2332.0313,477.4375 2332.1797,477.3594 Q2332.3281,477.2813 2332.5313,477.2813 Q2332.8594,477.2813 2333.1172,477.5391 Q2333.375,477.7969 2333.375,478.1406 Q2333.375,478.4844 2333.0313,478.8906 Q2332.5313,479.4688 2331.7344,479.7969 Q2330.6563,480.25 2329.3594,480.25 Q2327.8438,480.25 2326.6406,479.625 Q2325.6563,479.125 2324.9688,478.0547 Q2324.2813,476.9844 2324.2813,475.7031 L2324.2813,474.5469 Q2324.2813,473.2188 2324.8984,472.0703 Q2325.5156,470.9219 2326.6094,470.3047 Q2327.7031,469.6875 2328.9375,469.6875 Q2329.6719,469.6875 2330.3203,469.8516 Q2330.9688,470.0156 2331.5156,470.375 Z " fill="#000000"/><text fill="#000000" font-family="sans-serif" font-size="14" lengthAdjust="spacing" textLength="49" x="2349.25" y="480.2285">Combat</text><line style="stroke:#181818;stroke-width:0.5;" x1="2109" x2="2606" y1="490.5" y2="490.5"/><text fill="#000000" font-family="sans-serif" font-size="14" lengthAdjust="spacing" textLength="123" x="2114" y="509.0332">-mRPlayer: Player&amp;</text><text fill="#000000" font-family="sans-serif" font-size="14" lengthAdjust="spacing" textLength="145" x="2114" y="526.6426">-mRMonster: Monster&amp;</text><text fill="#000000" font-family="sans-serif" font-size="14" lengthAdjust="spacing" textLength="199" x="2114" y="544.252">-mRCatalog: const ActCatalog&amp;</text><text fill="#000000" font-family="sans-serif" font-size="14" lengthAdjust="spacing" textLength="224" x="2114" y="561.8613">-mRandomService: RandomService</text><line style="stroke:#181818;stroke-width:0.5;" x1="2109" x2="2606" y1="568.9375" y2="568.9375"/><text fill="#000000" font-family="sans-serif" font-size="14" lengthAdjust="spacing" textLength="487" x="2114" y="587.4707">+Combat(rPlayer: Player&amp;, rMonster: Monster&amp;, rCatalog: const ActCatalog&amp;)</text><text fill="#000000" font-family="sans-serif" font-size="14" lengthAdjust="spacing" textLength="143" x="2114" y="605.0801">+start(): CombatResult</text><text fill="#000000" font-family="sans-serif" font-size="14" lengthAdjust="spacing" textLength="123" x="2114" y="622.6895">+playerFight(): void</text><text fill="#000000" font-family="sans-serif" font-size="14" lengthAdjust="spacing" textLength="264" x="2114" y="640.2988">+playerAct(rActId: const std::string&amp;): void</text><text fill="#000000" font-family="sans-serif" font-size="14" lengthAdjust="spacing" textLength="301" x="2114" y="657.9082">+playerItem(rItemName: const std::string&amp;): void</text><text fill="#000000" font-family="sans-serif" font-size="14" lengthAdjust="spacing" textLength="130" x="2114" y="675.5176">+playerMercy(): bool</text><text fill="#000000" font-family="sans-serif" font-size="14" lengthAdjust="spacing" textLength="133" x="2114" y="693.127">+monsterTurn(): void</text></g><!--class Game--><g id="elem_Game"><rect codeLine="165" fill="#F1F1F1" height="364.9688" id="Game" rx="2.5" ry="2.5" style="stroke:#181818;stroke-width:0.5;" width="369" x="1870" y="7"/><ellipse cx="2031.25" cy="23" fill="#ADD1B2" rx="11" ry="11" style="stroke:#181818;stroke-width:1.0;"/><path d="M2034.0156,18.875 Q2034.1719,18.6563 2034.3594,18.5469 Q2034.5469,18.4375 2034.7656,18.4375 Q2035.1406,18.4375 2035.375,18.6953 Q2035.6094,18.9531 2035.6094,19.5625 L2035.6094,21.0156 Q2035.6094,21.625 2035.375,21.8906 Q2035.1406,22.1563 2034.7656,22.1563 Q2034.4219,22.1563 2034.2188,21.9531 Q2034.0156,21.7656 2033.9063,21.25 Q2033.8594,20.8906 2033.6719,20.7031 Q2033.3438,20.3281 2032.7344,20.1094 Q2032.125,19.8906 2031.5,19.8906 Q2030.7344,19.8906 2030.1016,20.2188 Q2029.4688,20.5469 2028.9766,21.2969 Q2028.4844,22.0469 2028.4844,23.0781 L2028.4844,24.1719 Q2028.4844,25.4063 2029.375,26.2266 Q2030.2656,27.0469 2031.8594,27.0469 Q2032.7969,27.0469 2033.4531,26.7969 Q2033.8438,26.6406 2034.2656,26.2031 Q2034.5313,25.9375 2034.6797,25.8594 Q2034.8281,25.7813 2035.0313,25.7813 Q2035.3594,25.7813 2035.6172,26.0391 Q2035.875,26.2969 2035.875,26.6406 Q2035.875,26.9844 2035.5313,27.3906 Q2035.0313,27.9688 2034.2344,28.2969 Q2033.1563,28.75 2031.8594,28.75 Q2030.3438,28.75 2029.1406,28.125 Q2028.1563,27.625 2027.4688,26.5547 Q2026.7813,25.4844 2026.7813,24.2031 L2026.7813,23.0469 Q2026.7813,21.7188 2027.3984,20.5703 Q2028.0156,19.4219 2029.1094,18.8047 Q2030.2031,18.1875 2031.4375,18.1875 Q2032.1719,18.1875 2032.8203,18.3516 Q2033.4688,18.5156 2034.0156,18.875 Z " fill="#000000"/><text fill="#000000" font-family="sans-serif" font-size="14" lengthAdjust="spacing" textLength="38" x="2051.75" y="28.7285">Game</text><line style="stroke:#181818;stroke-width:0.5;" x1="1871" x2="2238" y1="39" y2="39"/><text fill="#000000" font-family="sans-serif" font-size="14" lengthAdjust="spacing" textLength="104" x="1876" y="57.5332">-mPlayer: Player</text><text fill="#000000" font-family="sans-serif" font-size="14" lengthAdjust="spacing" textLength="126" x="1876" y="75.1426">-mBestiary: Bestiary</text><text fill="#000000" font-family="sans-serif" font-size="14" lengthAdjust="spacing" textLength="142" x="1876" y="92.752">-mCatalog: ActCatalog</text><text fill="#000000" font-family="sans-serif" font-size="14" lengthAdjust="spacing" textLength="326" x="1876" y="110.3613">-mMonsters: std::vector&lt;std::unique_ptr&lt;Monster&gt;&gt;</text><text fill="#000000" font-family="sans-serif" font-size="14" lengthAdjust="spacing" textLength="130" x="1876" y="127.9707">-mIsGameOver: bool</text><line style="stroke:#181818;stroke-width:0.5;" x1="1871" x2="2238" y1="135.0469" y2="135.0469"/><text fill="#000000" font-family="sans-serif" font-size="14" lengthAdjust="spacing" textLength="143" x="1876" y="153.5801">+Game(player: Player)</text><text fill="#000000" font-family="sans-serif" font-size="14" lengthAdjust="spacing" textLength="73" x="1876" y="171.1895">+run(): void</text><text fill="#000000" font-family="sans-serif" font-size="14" lengthAdjust="spacing" textLength="189" x="1876" y="188.7988">+showStartupSummary(): void</text><text fill="#000000" font-family="sans-serif" font-size="14" lengthAdjust="spacing" textLength="117" x="1876" y="206.4082">+mainMenu(): void</text><text fill="#000000" font-family="sans-serif" font-size="14" lengthAdjust="spacing" textLength="130" x="1876" y="224.0176">+startCombat(): bool</text><text fill="#000000" font-family="sans-serif" font-size="14" lengthAdjust="spacing" textLength="116" x="1876" y="241.627">+showStats(): void</text><text fill="#000000" font-family="sans-serif" font-size="14" lengthAdjust="spacing" textLength="117" x="1876" y="259.2363">+showItems(): void</text><text fill="#000000" font-family="sans-serif" font-size="14" lengthAdjust="spacing" textLength="135" x="1876" y="276.8457">+showBestiary(): void</text><text fill="#000000" font-family="sans-serif" font-size="14" lengthAdjust="spacing" textLength="140" x="1876" y="294.4551">+checkEndings(): void</text><text fill="#000000" font-family="sans-serif" font-size="14" lengthAdjust="spacing" textLength="135" x="1876" y="312.0645">+getPlayer(): Player&amp;</text><text fill="#000000" font-family="sans-serif" font-size="14" lengthAdjust="spacing" textLength="157" x="1876" y="329.6738">+getBestiary(): Bestiary&amp;</text><text fill="#000000" font-family="sans-serif" font-size="14" lengthAdjust="spacing" textLength="173" x="1876" y="347.2832">+getCatalog(): ActCatalog&amp;</text><text fill="#000000" font-family="sans-serif" font-size="14" lengthAdjust="spacing" textLength="357" x="1876" y="364.8926">+getMonsters(): std::vector&lt;std::unique_ptr&lt;Monster&gt;&gt;&amp;</text></g><!--class RandomService--><g id="elem_RandomService"><rect codeLine="186" fill="#F1F1F1" height="65.6094" id="RandomService" rx="2.5" ry="2.5" style="stroke:#181818;stroke-width:0.5;" width="190" x="2631.5" y="892.5"/><ellipse cx="2672.6" cy="908.5" fill="#ADD1B2" rx="11" ry="11" style="stroke:#181818;stroke-width:1.0;"/><path d="M2675.3656,904.375 Q2675.5219,904.1563 2675.7094,904.0469 Q2675.8969,903.9375 2676.1156,903.9375 Q2676.4906,903.9375 2676.725,904.1953 Q2676.9594,904.4531 2676.9594,905.0625 L2676.9594,906.5156 Q2676.9594,907.125 2676.725,907.3906 Q2676.4906,907.6563 2676.1156,907.6563 Q2675.7719,907.6563 2675.5688,907.4531 Q2675.3656,907.2656 2675.2563,906.75 Q2675.2094,906.3906 2675.0219,906.2031 Q2674.6938,905.8281 2674.0844,905.6094 Q2673.475,905.3906 2672.85,905.3906 Q2672.0844,905.3906 2671.4516,905.7188 Q2670.8188,906.0469 2670.3266,906.7969 Q2669.8344,907.5469 2669.8344,908.5781 L2669.8344,909.6719 Q2669.8344,910.9063 2670.725,911.7266 Q2671.6156,912.5469 2673.2094,912.5469 Q2674.1469,912.5469 2674.8031,912.2969 Q2675.1938,912.1406 2675.6156,911.7031 Q2675.8813,911.4375 2676.0297,911.3594 Q2676.1781,911.2813 2676.3813,911.2813 Q2676.7094,911.2813 2676.9672,911.5391 Q2677.225,911.7969 2677.225,912.1406 Q2677.225,912.4844 2676.8813,912.8906 Q2676.3813,913.4688 2675.5844,913.7969 Q2674.5063,914.25 2673.2094,914.25 Q2671.6938,914.25 2670.4906,913.625 Q2669.5063,913.125 2668.8188,912.0547 Q2668.1313,910.9844 2668.1313,909.7031 L2668.1313,908.5469 Q2668.1313,907.2188 2668.7484,906.0703 Q2669.3656,904.9219 2670.4594,904.3047 Q2671.5531,903.6875 2672.7875,903.6875 Q2673.5219,903.6875 2674.1703,903.8516 Q2674.8188,904.0156 2675.3656,904.375 Z " fill="#000000"/><text fill="#000000" font-family="sans-serif" font-size="14" lengthAdjust="spacing" textLength="100" x="2692.4" y="914.2285">RandomService</text><line style="stroke:#181818;stroke-width:0.5;" x1="2632.5" x2="2820.5" y1="924.5" y2="924.5"/><line style="stroke:#181818;stroke-width:0.5;" x1="2632.5" x2="2820.5" y1="932.5" y2="932.5"/><text fill="#000000" font-family="sans-serif" font-size="14" lengthAdjust="spacing" textLength="178" x="2637.5" y="951.0332">+rollDamage(maxHp: int): int</text></g><!--class CsvLoader--><g id="elem_CsvLoader"><rect codeLine="190" fill="#F1F1F1" height="83.2188" id="CsvLoader" rx="2.5" ry="2.5" style="stroke:#181818;stroke-width:0.5;" width="704" x="1297.5" y="538"/><ellipse cx="1610.75" cy="554" fill="#ADD1B2" rx="11" ry="11" style="stroke:#181818;stroke-width:1.0;"/><path d="M1613.5156,549.875 Q1613.6719,549.6563 1613.8594,549.5469 Q1614.0469,549.4375 1614.2656,549.4375 Q1614.6406,549.4375 1614.875,549.6953 Q1615.1094,549.9531 1615.1094,550.5625 L1615.1094,552.0156 Q1615.1094,552.625 1614.875,552.8906 Q1614.6406,553.1563 1614.2656,553.1563 Q1613.9219,553.1563 1613.7188,552.9531 Q1613.5156,552.7656 1613.4063,552.25 Q1613.3594,551.8906 1613.1719,551.7031 Q1612.8438,551.3281 1612.2344,551.1094 Q1611.625,550.8906 1611,550.8906 Q1610.2344,550.8906 1609.6016,551.2188 Q1608.9688,551.5469 1608.4766,552.2969 Q1607.9844,553.0469 1607.9844,554.0781 L1607.9844,555.1719 Q1607.9844,556.4063 1608.875,557.2266 Q1609.7656,558.0469 1611.3594,558.0469 Q1612.2969,558.0469 1612.9531,557.7969 Q1613.3438,557.6406 1613.7656,557.2031 Q1614.0313,556.9375 1614.1797,556.8594 Q1614.3281,556.7813 1614.5313,556.7813 Q1614.8594,556.7813 1615.1172,557.0391 Q1615.375,557.2969 1615.375,557.6406 Q1615.375,557.9844 1615.0313,558.3906 Q1614.5313,558.9688 1613.7344,559.2969 Q1612.6563,559.75 1611.3594,559.75 Q1609.8438,559.75 1608.6406,559.125 Q1607.6563,558.625 1606.9688,557.5547 Q1606.2813,556.4844 1606.2813,555.2031 L1606.2813,554.0469 Q1606.2813,552.7188 1606.8984,551.5703 Q1607.5156,550.4219 1608.6094,549.8047 Q1609.7031,549.1875 1610.9375,549.1875 Q1611.6719,549.1875 1612.3203,549.3516 Q1612.9688,549.5156 1613.5156,549.875 Z " fill="#000000"/><text fill="#000000" font-family="sans-serif" font-size="14" lengthAdjust="spacing" textLength="69" x="1631.25" y="559.7285">CsvLoader</text><line style="stroke:#181818;stroke-width:0.5;" x1="1298.5" x2="2000.5" y1="570" y2="570"/><line style="stroke:#181818;stroke-width:0.5;" x1="1298.5" x2="2000.5" y1="578" y2="578"/><text fill="#000000" font-family="sans-serif" font-size="14" lengthAdjust="spacing" textLength="295" x="1303.5" y="596.5332">+loadItems(rPath: const std::string&amp;): Inventory</text><text fill="#000000" font-family="sans-serif" font-size="14" lengthAdjust="spacing" textLength="692" x="1303.5" y="614.1426">+loadMonsters(rPath: const std::string&amp;, rCatalog: const ActCatalog&amp;): std::vector&lt;std::unique_ptr&lt;Monster&gt;&gt;</text></g><!--reverse link Entity to Player--><g id="link_Entity_Player"><path d="M2950.9943,742.2424 C2964.4743,761.9724 2968.1,767.28 2981.46,786.83 " fill="none" id="Entity-backto-Player" style="stroke:#181818;stroke-width:1.0;"/><polygon fill="none" points="2940.84,727.38,2946.0402,745.6271,2955.9484,738.8576,2940.84,727.38" style="stroke:#181818;stroke-width:1.0;"/></g><!--reverse link Entity to Monster--><g id="link_Entity_Monster"><path d="M2626.0333,726.487 C2620.2233,729.617 2630.27,724.11 2624.5,727 C2574.76,751.94 2521.12,775.03 2467.34,795.97 " fill="none" id="Entity-backto-Monster" style="stroke:#181818;stroke-width:1.0;"/><polygon fill="none" points="2641.88,717.95,2623.1876,721.2048,2628.879,731.7693,2641.88,717.95" style="stroke:#181818;stroke-width:1.0;"/></g><!--reverse link Monster to NormalMonster--><g id="link_Monster_NormalMonster"><path d="M2171.7958,1069.3186 C2204.5158,1109.1486 2227.18,1136.75 2252.67,1167.79 " fill="none" id="Monster-backto-NormalMonster" style="stroke:#181818;stroke-width:1.0;"/><polygon fill="none" points="2160.37,1055.41,2167.1596,1073.1273,2176.432,1065.51,2160.37,1055.41" style="stroke:#181818;stroke-width:1.0;"/></g><!--reverse link Monster to MiniBossMonster--><g id="link_Monster_MiniBossMonster"><path d="M1769.3734,1062.97 C1685.9334,1102.9 1615.15,1136.78 1550.15,1167.89 " fill="none" id="Monster-backto-MiniBossMonster" style="stroke:#181818;stroke-width:1.0;"/><polygon fill="none" points="1785.61,1055.2,1766.7834,1057.5578,1771.9634,1068.3822,1785.61,1055.2" style="stroke:#181818;stroke-width:1.0;"/></g><!--reverse link Monster to BossMonster--><g id="link_Monster_BossMonster"><path d="M2537.0561,1059.8148 C2548.0961,1062.8248 2541.68,1061.06 2552.5,1064 C2682.09,1099.16 2828.29,1138.11 2940.96,1167.98 " fill="none" id="Monster-backto-BossMonster" style="stroke:#181818;stroke-width:1.0;"/><polygon fill="none" points="2519.69,1055.08,2535.4779,1065.6035,2538.6344,1054.0261,2519.69,1055.08" style="stroke:#181818;stroke-width:1.0;"/></g><!--reverse link Player to Inventory--><g id="link_Player_Inventory"><path codeLine="196" d="M3287.6587,1013.9551 C3370.3787,1048.5951 3455.85,1085.14 3542.5,1124 C3554.94,1129.58 3567.77,1135.44 3580.64,1141.38 " fill="none" id="Player-backto-Inventory" style="stroke:#181818;stroke-width:1.0;"/><polygon fill="#181818" points="3276.59,1009.32,3280.5793,1015.3271,3287.6587,1013.9551,3283.6694,1007.948,3276.59,1009.32" style="stroke:#181818;stroke-width:1.0;"/></g><!--reverse link Inventory to Item--><g id="link_Inventory_Item"><path codeLine="197" d="M3739.5,1307.81 C3739.5,1331.93 3739.5,1346.98 3739.5,1372.61 " fill="none" id="Inventory-backto-Item" style="stroke:#181818;stroke-width:1.0;"/><polygon fill="#181818" points="3739.5,1295.81,3735.5,1301.81,3739.5,1307.81,3743.5,1301.81,3739.5,1295.81" style="stroke:#181818;stroke-width:1.0;"/></g><!--reverse link ActCatalog to ActAction--><g id="link_ActCatalog_ActAction"><path codeLine="198" d="M1182.4377,999.1553 C1107.8477,1037.8453 1023.6,1081.54 941.79,1123.98 " fill="none" id="ActCatalog-backto-ActAction" style="stroke:#181818;stroke-width:1.0;"/><polygon fill="none" points="1193.09,993.63,1185.9221,992.8419,1182.4377,999.1553,1189.6057,999.9434,1193.09,993.63" style="stroke:#181818;stroke-width:1.0;"/></g><!--reverse link Bestiary to BestiaryEntry--><g id="link_Bestiary_BestiaryEntry"><path codeLine="199" d="M847.8899,636.7982 C786.1599,677.8782 705.41,731.6 622.16,786.99 " fill="none" id="Bestiary-backto-BestiaryEntry" style="stroke:#181818;stroke-width:1.0;"/><polygon fill="#181818" points="857.88,630.15,850.6689,630.1441,847.8899,636.7982,855.101,636.8041,857.88,630.15" style="stroke:#181818;stroke-width:1.0;"/></g><!--reverse link Game to Player--><g id="link_Game_Player"><path codeLine="201" d="M2251.1221,210.0549 C2511.5021,239.8649 2954.33,307.3 3056.5,432 C3136.56,529.71 3130.6,678.5 3111.21,786.97 " fill="none" id="Game-backto-Player" style="stroke:#181818;stroke-width:1.0;"/><polygon fill="#181818" points="2239.2,208.69,2244.7061,213.3465,2251.1221,210.0549,2245.616,205.3984,2239.2,208.69" style="stroke:#181818;stroke-width:1.0;"/></g><!--reverse link Game to Bestiary--><g id="link_Game_Bestiary"><path codeLine="202" d="M1858.0443,235.874 C1686.3543,277.914 1436.72,345.52 1218.5,432 C1149.13,459.49 1074.18,498.24 1018.41,528.99 " fill="none" id="Game-backto-Bestiary" style="stroke:#181818;stroke-width:1.0;"/><polygon fill="#181818" points="1869.7,233.02,1862.9208,230.5618,1858.0443,235.874,1864.8235,238.3322,1869.7,233.02" style="stroke:#181818;stroke-width:1.0;"/></g><!--reverse link Game to ActCatalog--><g id="link_Game_ActCatalog"><path codeLine="203" d="M1857.8872,224.6429 C1652.0772,264.3429 1350.77,336.47 1280.5,432 C1187.71,558.16 1248.56,754.74 1291.15,857.22 " fill="none" id="Game-backto-ActCatalog" style="stroke:#181818;stroke-width:1.0;"/><polygon fill="#181818" points="1869.67,222.37,1863.021,219.5788,1857.8872,224.6429,1864.5362,227.434,1869.67,222.37" style="stroke:#181818;stroke-width:1.0;"/></g><!--reverse link Game to Monster--><g id="link_Game_Monster"><path codeLine="204" d="M2054.5,384.41 C2054.5,516.02 2054.5,678.65 2054.5,795.96 " fill="none" id="Game-backto-Monster" style="stroke:#181818;stroke-width:1.0;"/><polygon fill="#181818" points="2054.5,372.41,2050.5,378.41,2054.5,384.41,2058.5,378.41,2054.5,372.41" style="stroke:#181818;stroke-width:1.0;"/><text fill="#000000" font-family="sans-serif" font-size="13" lengthAdjust="spacing" textLength="20" x="2033.8906" y="785.075">0..*</text></g><!--link Game to Combat--><g id="link_Game_Combat"><path codeLine="205" d="M2196.24,372 C2219.11,401.29 2238.5875,426.2308 2259.9575,453.6008 " fill="none" id="Game-to-Combat" style="stroke:#181818;stroke-width:1.0;stroke-dasharray:7.0,7.0;"/><polygon fill="#181818" points="2263.65,458.33,2261.2641,448.7745,2260.5729,454.389,2254.9585,453.6978,2263.65,458.33" style="stroke:#181818;stroke-width:1.0;"/></g><!--link Combat to Player--><g id="link_Combat_Player"><path codeLine="207" d="M2565.52,700.52 C2585.18,710.07 2605.04,719.07 2624.5,727 C2716.37,764.44 2748.12,748.38 2839.5,787 C2851.07,791.89 2857.3815,794.6216 2869.0715,800.2916 " fill="none" id="Combat-to-Player" style="stroke:#181818;stroke-width:1.0;"/><polygon fill="#181818" points="2874.47,802.91,2868.1179,795.3833,2869.9712,800.728,2864.6266,802.5813,2874.47,802.91" style="stroke:#181818;stroke-width:1.0;"/></g><!--link Combat to Monster--><g id="link_Combat_Monster"><path codeLine="208" d="M2251.53,700.81 C2224.48,731.52 2199.2557,760.1574 2171.8557,791.2674 " fill="none" id="Combat-to-Monster" style="stroke:#181818;stroke-width:1.0;"/><polygon fill="#181818" points="2167.89,795.77,2176.8402,791.6598,2171.1947,792.0178,2170.8367,786.3723,2167.89,795.77" style="stroke:#181818;stroke-width:1.0;"/></g><!--link Combat to ActCatalog--><g id="link_Combat_ActCatalog"><path codeLine="209" d="M2107.88,697.77 C2078.51,708.85 2048.62,718.93 2019.5,727 C1823.78,781.24 1759.13,722.65 1566.5,787 C1516.12,803.83 1469.4294,828.2272 1426.5694,854.2372 " fill="none" id="Combat-to-ActCatalog" style="stroke:#181818;stroke-width:1.0;"/><polygon fill="#181818" points="1421.44,857.35,1431.2093,856.1004,1425.7145,854.756,1427.0588,849.2612,1421.44,857.35" style="stroke:#181818;stroke-width:1.0;"/></g><!--reverse link Combat to RandomService--><g id="link_Combat_RandomService"><path codeLine="210" d="M2517.6973,708.4452 C2550.1573,735.9352 2574.53,757.89 2604.5,787 C2639.64,821.13 2676.51,863.76 2700.39,892.44 " fill="none" id="Combat-backto-RandomService" style="stroke:#181818;stroke-width:1.0;"/><polygon fill="#181818" points="2508.54,700.69,2510.5336,707.6201,2517.6973,708.4452,2515.7037,701.5152,2508.54,700.69" style="stroke:#181818;stroke-width:1.0;"/></g><!--link Item to ItemType--><g id="link_Item_ItemType"><path codeLine="212" d="M3739.5,1579.11 C3739.5,1600.84 3739.5,1616.22 3739.5,1632.88 " fill="none" id="Item-to-ItemType" style="stroke:#181818;stroke-width:1.0;stroke-dasharray:7.0,7.0;"/><polygon fill="#181818" points="3739.5,1638.88,3743.5,1629.88,3739.5,1633.88,3735.5,1629.88,3739.5,1638.88" style="stroke:#181818;stroke-width:1.0;"/></g><!--link Monster to MonsterCategory--><g id="link_Monster_MonsterCategory"><path codeLine="213" d="M1583.22,1047.61 C1551.29,1053.77 1519.5,1059.33 1488.5,1064 C1271.65,1096.68 702.07,1030.94 503.5,1124 C482.71,1133.74 468.3005,1146.2208 453.8505,1163.1108 " fill="none" id="Monster-to-MonsterCategory" style="stroke:#181818;stroke-width:1.0;stroke-dasharray:7.0,7.0;"/><polygon fill="#181818" points="449.95,1167.67,458.8402,1163.4316,453.2004,1163.8707,452.7613,1158.2309,449.95,1167.67" style="stroke:#181818;stroke-width:1.0;"/></g><!--link BestiaryEntry to MonsterCategory--><g id="link_BestiaryEntry_MonsterCategory"><path codeLine="214" d="M415.5,1064.33 C415.5,1101.35 415.5,1133.03 415.5,1161.76 " fill="none" id="BestiaryEntry-to-MonsterCategory" style="stroke:#181818;stroke-width:1.0;stroke-dasharray:7.0,7.0;"/><polygon fill="#181818" points="415.5,1167.76,419.5,1158.76,415.5,1162.76,411.5,1158.76,415.5,1167.76" style="stroke:#181818;stroke-width:1.0;"/></g><!--link BestiaryEntry to CombatResult--><g id="link_BestiaryEntry_CombatResult"><path codeLine="215" d="M330.24,1064.33 C307.35,1101.35 287.1962,1133.9272 269.4262,1162.6572 " fill="none" id="BestiaryEntry-to-CombatResult" style="stroke:#181818;stroke-width:1.0;stroke-dasharray:7.0,7.0;"/><polygon fill="#181818" points="266.27,1167.76,274.4061,1162.2099,268.9001,1163.5077,267.6024,1158.0017,266.27,1167.76" style="stroke:#181818;stroke-width:1.0;"/></g><!--link CsvLoader to Inventory--><g id="link_CsvLoader_Inventory"><path codeLine="216" d="M1753.05,621.09 C1841.43,654.23 1972.57,699.86 2090.5,727 C2189.46,749.77 2467.55,719.6 2543.5,787 C2638.56,871.35 2516.66,982.88 2614.5,1064 C2694.04,1129.95 3442.48,1098.05 3542.5,1124 C3559.91,1128.52 3572.0623,1132.3689 3589.3923,1139.2389 " fill="none" id="CsvLoader-to-Inventory" style="stroke:#181818;stroke-width:1.0;stroke-dasharray:7.0,7.0;"/><polygon fill="#181818" points="3594.97,1141.45,3588.0775,1134.4148,3590.3219,1139.6074,3585.1293,1141.8518,3594.97,1141.45" style="stroke:#181818;stroke-width:1.0;"/></g><!--link CsvLoader to Monster--><g id="link_CsvLoader_Monster"><path codeLine="217" d="M1697.55,621.31 C1748.05,664.2 1825.517,730.0057 1898.227,791.7657 " fill="none" id="CsvLoader-to-Monster" style="stroke:#181818;stroke-width:1.0;stroke-dasharray:7.0,7.0;"/><polygon fill="#181818" points="1902.8,795.65,1898.5301,786.7749,1898.9892,792.4131,1893.351,792.8722,1902.8,795.65" style="stroke:#181818;stroke-width:1.0;"/></g><!--link CsvLoader to ActCatalog--><g id="link_CsvLoader_ActCatalog"><path codeLine="218" d="M1610.7,621.31 C1555.3,679.6 1456.9836,783.0211 1390.3536,853.1211 " fill="none" id="CsvLoader-to-ActCatalog" style="stroke:#181818;stroke-width:1.0;stroke-dasharray:7.0,7.0;"/><polygon fill="#181818" points="1386.22,857.47,1395.3197,853.7024,1389.6647,853.8459,1389.5212,848.1909,1386.22,857.47" style="stroke:#181818;stroke-width:1.0;"/></g><!--SRC=[tLXBRziu4BxhLmWju5LQE-XPA0ouiTiOZPEi7IpGKy58N9i8zIX9kNKN_U_BuKkaB2lUpMaNA59oD9mPVlEa-HCfQyHG4MSKSJuJWf77Hk1bLfKRyXF7xwBejtXHDWMFiFmRhwgI2yokaC3RYXtYlw8ulhrRhsOtSh5QtYu_t6qsSgd- -nNfGqk1YuT3ZHNtzKBosYzNLV68n1hpXWhrzVFovcOnbulD_Moj5lStio-BzTVvukDYzY0flxH5WWY2UOGUkM0e4zf-JTTMJOfRLE0qvY9FKyb4ogsYNjTfJ4gXrYlqmz_En5ExcUC_xUQj5fimBJ4337ovet5SE4dZ61anupWtCYv0o1OBE9zSz4am3DSrV3PQvLuP69AaaI516jeINdCbP8zeWxNgDDvN90TUmcUKx9K1ZrL5WIJG4vwZ0crnWeggAKLmHaAjORsdw81PZ7y8NEOTb3yJIdaBsqQ64_RsVv1CL8puf6MvnwKa7jBOBS4OhUNbA2kBGeoqLI7DMUQHKPx3wSH3JPBKwGvDdpxur1r6j0z6hSvT5OwupGX0xWInoR5-k6tcfTrKr06DMNRmuXksdof4lHZFn3Bd9Yts62xntWDv2jOQoV_U4-CuEsMcF1eODOwPDSdJqsFOoBhNIW8SZp5GMGCQEebabNQIIQdkf6IVSijFQVKTv_BO5RZP4vRHgbGneeur9VdMuA-rOE-DYGfORcqxpa-NQxSLAn3jne3TGn2y3LXUugMNkk8bSBWBhqX9FbIS3rwvm_IVl_Ip5_u_NHRw_s1FXk4WTME2xXikGq0PV4ekt6e041686iTUfftRXE6WAjAjFQfVW2I_LzGrbJF10sBoOsfwvEWedrsfDmY0L5j_2rJxi8z1zDHnoSP-aX6-JurXlpVecVaaQ709WyEM3TOIjc_YqErP3ST3GFTSt4uLb72Xhkd2muIOjjf18wDA_YDLQQ79Uq93PiSnLLNHEQO2kPivOJfEsYq3iVqtKB9xqogKRqDdcGy7ZfGtoD2QRUF8nq9sCKIhhG53Mtyo0DpzfiwjUc_LEuQHFw8WVWeFpt_IqW6khdZhyQwpFGlRieUv88WTv4ZZ4iBKY_xAyCouSzxyFYdq2oCDtXkgolhs92mmfIykXiQQPoenwp71nfMdTp1-pXXz_kc30GZQ6A05-1nvpJWCm583lU_j0Cas9jNMtYZWySFIXiznKmh5ZlJhRtFWK5sCTTfcOzjQLoDNbJJHOEL0CsIJS5v86uhvZigyAZQOxKacuo7OWjLQSS8wAgMhZ_H9scbbAWguGEpO1V93hQH-9DkTy1yRcYob9BgbdqZMa5qtJ_Wxq2d28swMjiMXq5TwQ5YP73MxJrAiyKI8YY9PPwOk4coEQsHQJFp2qFTOwHatJD_aOCBT7ZHRYu6Ir84v2dBMb3wYV5Tztu0NcdhJ50KA7tS58kKAbqrm0hXD57W86K62TwMxdkWJBHG-FTlXx6bHvj8Z0R_CLVD8ll0Z7EY-6BlsoWQ02f_26FTgpr6lFedpg7Lta19wRcKLfUONXROYTflT5T_VL2YtiowLQuqDkqTYTo8kWzyAu8Yp_EIfuRGxDwvKpLbZYbH3tf6QH-O7aJUJYMTME-afkhnGv7NrIj9SIunSIGNMeCX5aKeYe9lKSNkNDOxYPOoZlNftUVdcbIqzcdvvEJM59OfClPnCfbQ1Hx6dF9Admr11IrWD8pNYWnOtDDlN312xlIeS0yxZ2EfY6q1AftD1I7UN2QZUVVu6]--></g></svg>